<mxfile host="app.diagrams.net" modified="2021-12-29T13:24:14.128Z" agent="5.0 (Windows NT 10.0; Win64; x64) AppleWebKit/537.36 (KHTML, like Gecko) Chrome/96.0.4664.110 Safari/537.36" etag="p9JxImNZcv6JgdJe1XIH" compressed="false" version="16.0.3" type="device" pages="4">
  <diagram id="C5RBs43oDa-KdzZeNtuy" name="Cranking">
    <mxGraphModel dx="1422" dy="762" grid="1" gridSize="10" guides="1" tooltips="1" connect="1" arrows="1" fold="1" page="1" pageScale="1" pageWidth="827" pageHeight="1169" background="none" math="0" shadow="0">
      <root>
        <mxCell id="WIyWlLk6GJQsqaUBKTNV-0" />
        <mxCell id="WIyWlLk6GJQsqaUBKTNV-1" parent="WIyWlLk6GJQsqaUBKTNV-0" />
        <mxCell id="2qMD95uB7AapAdLqq2X5-19" style="edgeStyle=orthogonalEdgeStyle;rounded=0;orthogonalLoop=1;jettySize=auto;html=1;entryX=0.5;entryY=0;entryDx=0;entryDy=0;strokeColor=#000000;labelBackgroundColor=none;fontColor=#000000;" parent="WIyWlLk6GJQsqaUBKTNV-1" source="WIyWlLk6GJQsqaUBKTNV-3" target="2qMD95uB7AapAdLqq2X5-18" edge="1">
          <mxGeometry relative="1" as="geometry" />
        </mxCell>
        <mxCell id="WIyWlLk6GJQsqaUBKTNV-3" value="&lt;font&gt;Start&lt;/font&gt;" style="rounded=1;whiteSpace=wrap;html=1;fontSize=12;glass=0;strokeWidth=1;shadow=0;fillColor=#f8cecc;strokeColor=#b85450;labelBackgroundColor=none;fontColor=#000000;comic=0;noLabel=0;" parent="WIyWlLk6GJQsqaUBKTNV-1" vertex="1">
          <mxGeometry x="178" y="40" width="120" height="40" as="geometry" />
        </mxCell>
        <mxCell id="2qMD95uB7AapAdLqq2X5-7" value="Yes&lt;br&gt;" style="edgeStyle=orthogonalEdgeStyle;rounded=0;orthogonalLoop=1;jettySize=auto;html=1;entryX=0.5;entryY=0;entryDx=0;entryDy=0;strokeColor=#000000;labelBackgroundColor=none;fontColor=#000000;" parent="WIyWlLk6GJQsqaUBKTNV-1" source="WIyWlLk6GJQsqaUBKTNV-6" edge="1">
          <mxGeometry x="0.2" y="20" relative="1" as="geometry">
            <mxPoint x="238" y="400.0000000000001" as="targetPoint" />
            <mxPoint as="offset" />
          </mxGeometry>
        </mxCell>
        <mxCell id="WIyWlLk6GJQsqaUBKTNV-6" value="&lt;font&gt;Sync signal&lt;br&gt;occured&lt;/font&gt;" style="rhombus;whiteSpace=wrap;html=1;shadow=0;fontFamily=Helvetica;fontSize=12;align=center;strokeWidth=1;spacing=6;spacingTop=-4;strokeColor=#d79b00;labelBackgroundColor=none;fillColor=#ffe6cc;fontColor=#000000;" parent="WIyWlLk6GJQsqaUBKTNV-1" vertex="1">
          <mxGeometry x="188" y="280" width="100" height="80" as="geometry" />
        </mxCell>
        <mxCell id="2qMD95uB7AapAdLqq2X5-34" value="No" style="edgeStyle=orthogonalEdgeStyle;rounded=0;orthogonalLoop=1;jettySize=auto;html=1;exitX=1;exitY=0.5;exitDx=0;exitDy=0;strokeColor=#000000;labelBackgroundColor=none;fontColor=#000000;" parent="WIyWlLk6GJQsqaUBKTNV-1" source="2qMD95uB7AapAdLqq2X5-5" edge="1">
          <mxGeometry x="-0.8605" y="20" relative="1" as="geometry">
            <mxPoint x="299" y="420" as="targetPoint" />
            <Array as="points">
              <mxPoint x="358" y="600" />
              <mxPoint x="358" y="420" />
            </Array>
            <mxPoint as="offset" />
          </mxGeometry>
        </mxCell>
        <mxCell id="2qMD95uB7AapAdLqq2X5-5" value="&lt;font&gt;Is engine &lt;br&gt;speed over min.&lt;br&gt;cranking level&lt;/font&gt;" style="rhombus;whiteSpace=wrap;html=1;shadow=0;fontFamily=Helvetica;fontSize=12;align=center;strokeWidth=1;spacing=6;spacingTop=-4;strokeColor=#d79b00;labelBackgroundColor=none;fillColor=#ffe6cc;fontColor=#000000;" parent="WIyWlLk6GJQsqaUBKTNV-1" vertex="1">
          <mxGeometry x="178" y="550" width="120" height="100" as="geometry" />
        </mxCell>
        <mxCell id="2qMD95uB7AapAdLqq2X5-24" style="edgeStyle=orthogonalEdgeStyle;rounded=0;orthogonalLoop=1;jettySize=auto;html=1;entryX=0.5;entryY=0;entryDx=0;entryDy=0;strokeColor=#000000;labelBackgroundColor=none;fontColor=#000000;" parent="WIyWlLk6GJQsqaUBKTNV-1" source="2qMD95uB7AapAdLqq2X5-8" target="WIyWlLk6GJQsqaUBKTNV-6" edge="1">
          <mxGeometry relative="1" as="geometry" />
        </mxCell>
        <mxCell id="2qMD95uB7AapAdLqq2X5-8" value="&lt;font&gt;Wait for engine&amp;nbsp;&lt;br&gt;position signal&lt;/font&gt;" style="shape=parallelogram;perimeter=parallelogramPerimeter;whiteSpace=wrap;html=1;fixedSize=1;strokeColor=#82b366;labelBackgroundColor=none;fillColor=#d5e8d4;fontColor=#000000;" parent="WIyWlLk6GJQsqaUBKTNV-1" vertex="1">
          <mxGeometry x="178" y="200" width="120" height="40" as="geometry" />
        </mxCell>
        <mxCell id="1" style="edgeStyle=orthogonalEdgeStyle;rounded=0;orthogonalLoop=1;jettySize=auto;html=1;entryX=0.5;entryY=0;entryDx=0;entryDy=0;" parent="WIyWlLk6GJQsqaUBKTNV-1" source="2qMD95uB7AapAdLqq2X5-11" target="2qMD95uB7AapAdLqq2X5-5" edge="1">
          <mxGeometry relative="1" as="geometry" />
        </mxCell>
        <mxCell id="2qMD95uB7AapAdLqq2X5-11" value="&lt;font&gt;Wait for engine&amp;nbsp;&lt;br&gt;position signal&lt;/font&gt;" style="shape=parallelogram;perimeter=parallelogramPerimeter;whiteSpace=wrap;html=1;fixedSize=1;strokeColor=#82b366;labelBackgroundColor=none;fillColor=#d5e8d4;fontColor=#000000;" parent="WIyWlLk6GJQsqaUBKTNV-1" vertex="1">
          <mxGeometry x="178" y="480" width="120" height="40" as="geometry" />
        </mxCell>
        <mxCell id="2qMD95uB7AapAdLqq2X5-16" value="Yes&lt;br&gt;" style="edgeStyle=orthogonalEdgeStyle;rounded=0;orthogonalLoop=1;jettySize=auto;html=1;entryX=0.5;entryY=0;entryDx=0;entryDy=0;exitX=0.5;exitY=1;exitDx=0;exitDy=0;strokeColor=#000000;labelBackgroundColor=none;fontColor=#000000;" parent="WIyWlLk6GJQsqaUBKTNV-1" source="2qMD95uB7AapAdLqq2X5-5" target="sfe0FmU_0QcFS7ParcQb-10" edge="1">
          <mxGeometry x="-0.9775" y="-20" relative="1" as="geometry">
            <mxPoint x="237.79999999999995" y="670" as="sourcePoint" />
            <mxPoint x="238.00000000000023" y="680" as="targetPoint" />
            <mxPoint as="offset" />
            <Array as="points">
              <mxPoint x="238" y="670" />
              <mxPoint x="400" y="670" />
              <mxPoint x="400" y="200" />
              <mxPoint x="500" y="200" />
            </Array>
          </mxGeometry>
        </mxCell>
        <mxCell id="2qMD95uB7AapAdLqq2X5-23" style="edgeStyle=orthogonalEdgeStyle;rounded=0;orthogonalLoop=1;jettySize=auto;html=1;entryX=0.5;entryY=0;entryDx=0;entryDy=0;strokeColor=#000000;labelBackgroundColor=none;fontColor=#000000;" parent="WIyWlLk6GJQsqaUBKTNV-1" source="2qMD95uB7AapAdLqq2X5-18" target="2qMD95uB7AapAdLqq2X5-8" edge="1">
          <mxGeometry relative="1" as="geometry" />
        </mxCell>
        <mxCell id="2qMD95uB7AapAdLqq2X5-18" value="&lt;font&gt;Unsync&lt;br&gt;mode&lt;/font&gt;" style="rounded=0;whiteSpace=wrap;html=1;strokeColor=#6c8ebf;fillColor=#dae8fc;labelBackgroundColor=none;fontColor=#000000;" parent="WIyWlLk6GJQsqaUBKTNV-1" vertex="1">
          <mxGeometry x="178" y="120" width="120" height="40" as="geometry" />
        </mxCell>
        <mxCell id="2qMD95uB7AapAdLqq2X5-28" style="edgeStyle=orthogonalEdgeStyle;rounded=0;orthogonalLoop=1;jettySize=auto;html=1;entryX=0.5;entryY=0;entryDx=0;entryDy=0;strokeColor=#000000;labelBackgroundColor=none;fontColor=#000000;" parent="WIyWlLk6GJQsqaUBKTNV-1" source="2qMD95uB7AapAdLqq2X5-22" target="2qMD95uB7AapAdLqq2X5-11" edge="1">
          <mxGeometry relative="1" as="geometry">
            <mxPoint x="238" y="470.0000000000001" as="targetPoint" />
          </mxGeometry>
        </mxCell>
        <mxCell id="2qMD95uB7AapAdLqq2X5-22" value="&lt;font&gt;Sync&lt;br&gt;mode&lt;/font&gt;" style="rounded=0;whiteSpace=wrap;html=1;strokeColor=#6c8ebf;labelBackgroundColor=none;fillColor=#dae8fc;fontColor=#000000;" parent="WIyWlLk6GJQsqaUBKTNV-1" vertex="1">
          <mxGeometry x="178" y="400" width="120" height="40" as="geometry" />
        </mxCell>
        <mxCell id="2qMD95uB7AapAdLqq2X5-26" value="No" style="edgeStyle=orthogonalEdgeStyle;rounded=0;orthogonalLoop=1;jettySize=auto;html=1;labelPosition=center;verticalLabelPosition=middle;align=center;verticalAlign=middle;entryX=0;entryY=0.5;entryDx=0;entryDy=0;exitX=0;exitY=0.5;exitDx=0;exitDy=0;strokeColor=#000000;labelBackgroundColor=none;fontColor=#000000;" parent="WIyWlLk6GJQsqaUBKTNV-1" source="WIyWlLk6GJQsqaUBKTNV-6" target="2qMD95uB7AapAdLqq2X5-18" edge="1">
          <mxGeometry x="-0.8709" y="10" relative="1" as="geometry">
            <mxPoint x="288" y="220" as="targetPoint" />
            <mxPoint x="298" y="320" as="sourcePoint" />
            <Array as="points">
              <mxPoint x="118" y="320" />
              <mxPoint x="118" y="140" />
            </Array>
            <mxPoint as="offset" />
          </mxGeometry>
        </mxCell>
        <mxCell id="0" value="Yes&lt;br&gt;" style="edgeStyle=orthogonalEdgeStyle;rounded=0;orthogonalLoop=1;jettySize=auto;html=1;entryX=0.5;entryY=0;entryDx=0;entryDy=0;strokeColor=#000000;labelBackgroundColor=none;fontColor=#000000;" parent="WIyWlLk6GJQsqaUBKTNV-1" edge="1">
          <mxGeometry x="0.2" y="20" relative="1" as="geometry">
            <mxPoint x="237.99999999999977" y="400" as="targetPoint" />
            <mxPoint as="offset" />
            <mxPoint x="237.99999999999977" y="360" as="sourcePoint" />
          </mxGeometry>
        </mxCell>
        <mxCell id="sfe0FmU_0QcFS7ParcQb-9" style="edgeStyle=orthogonalEdgeStyle;rounded=0;orthogonalLoop=1;jettySize=auto;html=1;entryX=0.5;entryY=0;entryDx=0;entryDy=0;strokeColor=#000000;labelBackgroundColor=none;fontColor=#000000;" parent="WIyWlLk6GJQsqaUBKTNV-1" source="sfe0FmU_0QcFS7ParcQb-10" target="sfe0FmU_0QcFS7ParcQb-12" edge="1">
          <mxGeometry relative="1" as="geometry" />
        </mxCell>
        <mxCell id="sfe0FmU_0QcFS7ParcQb-10" value="&lt;font&gt;Cranking&lt;br&gt;mode&lt;/font&gt;" style="rounded=0;whiteSpace=wrap;html=1;strokeColor=#6c8ebf;labelBackgroundColor=none;fillColor=#dae8fc;fontColor=#000000;" parent="WIyWlLk6GJQsqaUBKTNV-1" vertex="1">
          <mxGeometry x="440" y="250" width="120" height="40" as="geometry" />
        </mxCell>
        <mxCell id="sfe0FmU_0QcFS7ParcQb-11" style="edgeStyle=orthogonalEdgeStyle;rounded=0;orthogonalLoop=1;jettySize=auto;html=1;entryX=0.5;entryY=0;entryDx=0;entryDy=0;" parent="WIyWlLk6GJQsqaUBKTNV-1" source="sfe0FmU_0QcFS7ParcQb-12" target="sfe0FmU_0QcFS7ParcQb-14" edge="1">
          <mxGeometry relative="1" as="geometry" />
        </mxCell>
        <mxCell id="sfe0FmU_0QcFS7ParcQb-12" value="&lt;font&gt;Wait for engine&amp;nbsp;&lt;br&gt;position signal&lt;/font&gt;" style="shape=parallelogram;perimeter=parallelogramPerimeter;whiteSpace=wrap;html=1;fixedSize=1;strokeColor=#82b366;labelBackgroundColor=none;fillColor=#d5e8d4;fontColor=#000000;" parent="WIyWlLk6GJQsqaUBKTNV-1" vertex="1">
          <mxGeometry x="440" y="330" width="120" height="40" as="geometry" />
        </mxCell>
        <mxCell id="sfe0FmU_0QcFS7ParcQb-13" value="Yes" style="edgeStyle=orthogonalEdgeStyle;rounded=0;orthogonalLoop=1;jettySize=auto;html=1;entryX=0.5;entryY=0;entryDx=0;entryDy=0;" parent="WIyWlLk6GJQsqaUBKTNV-1" source="sfe0FmU_0QcFS7ParcQb-14" target="sfe0FmU_0QcFS7ParcQb-17" edge="1">
          <mxGeometry x="0.1333" y="19" relative="1" as="geometry">
            <Array as="points">
              <mxPoint x="500" y="520" />
              <mxPoint x="500" y="520" />
            </Array>
            <mxPoint as="offset" />
          </mxGeometry>
        </mxCell>
        <mxCell id="sfe0FmU_0QcFS7ParcQb-14" value="Is engine&lt;br&gt;speed over max.&lt;br&gt;cranking level" style="rhombus;whiteSpace=wrap;html=1;shadow=0;fontFamily=Helvetica;fontSize=12;align=center;strokeWidth=1;spacing=6;spacingTop=-4;strokeColor=#d79b00;labelBackgroundColor=none;fillColor=#ffe6cc;fontColor=#000000;" parent="WIyWlLk6GJQsqaUBKTNV-1" vertex="1">
          <mxGeometry x="440" y="400" width="120" height="100" as="geometry" />
        </mxCell>
        <mxCell id="sfe0FmU_0QcFS7ParcQb-15" value="No" style="edgeStyle=orthogonalEdgeStyle;rounded=0;orthogonalLoop=1;jettySize=auto;html=1;exitX=1;exitY=0.5;exitDx=0;exitDy=0;strokeColor=#000000;labelBackgroundColor=none;fontColor=#000000;" parent="WIyWlLk6GJQsqaUBKTNV-1" edge="1">
          <mxGeometry x="-0.8605" y="20" relative="1" as="geometry">
            <mxPoint x="561" y="270" as="targetPoint" />
            <Array as="points">
              <mxPoint x="620" y="450" />
              <mxPoint x="620" y="270" />
            </Array>
            <mxPoint as="offset" />
            <mxPoint x="560.0000000000002" y="450.1199999999999" as="sourcePoint" />
          </mxGeometry>
        </mxCell>
        <mxCell id="sfe0FmU_0QcFS7ParcQb-16" style="edgeStyle=orthogonalEdgeStyle;rounded=0;orthogonalLoop=1;jettySize=auto;html=1;entryX=0.5;entryY=0;entryDx=0;entryDy=0;" parent="WIyWlLk6GJQsqaUBKTNV-1" source="sfe0FmU_0QcFS7ParcQb-17" target="sfe0FmU_0QcFS7ParcQb-18" edge="1">
          <mxGeometry relative="1" as="geometry" />
        </mxCell>
        <mxCell id="sfe0FmU_0QcFS7ParcQb-17" value="&lt;font&gt;Running&lt;br&gt;mode&lt;/font&gt;" style="rounded=0;whiteSpace=wrap;html=1;strokeColor=#6c8ebf;labelBackgroundColor=none;fillColor=#dae8fc;fontColor=#000000;" parent="WIyWlLk6GJQsqaUBKTNV-1" vertex="1">
          <mxGeometry x="440" y="530" width="120" height="40" as="geometry" />
        </mxCell>
        <mxCell id="sfe0FmU_0QcFS7ParcQb-18" value="&lt;font&gt;End&lt;/font&gt;" style="rounded=1;whiteSpace=wrap;html=1;fontSize=12;glass=0;strokeWidth=1;shadow=0;fillColor=#f8cecc;strokeColor=#b85450;labelBackgroundColor=none;fontColor=#000000;comic=0;noLabel=0;" parent="WIyWlLk6GJQsqaUBKTNV-1" vertex="1">
          <mxGeometry x="440" y="610" width="120" height="40" as="geometry" />
        </mxCell>
      </root>
    </mxGraphModel>
  </diagram>
  <diagram id="JLhW4B9PdD7kpeL9b0iZ" name="Running">
    <mxGraphModel dx="1422" dy="762" grid="1" gridSize="10" guides="1" tooltips="1" connect="1" arrows="1" fold="1" page="1" pageScale="1" pageWidth="827" pageHeight="1169" math="0" shadow="0">
      <root>
        <mxCell id="fndpj23y0kaD9JeOz60D-0" />
        <mxCell id="fndpj23y0kaD9JeOz60D-1" parent="fndpj23y0kaD9JeOz60D-0" />
        <mxCell id="I42JRj3VCJmBmwuEy20G-0" style="edgeStyle=orthogonalEdgeStyle;rounded=0;orthogonalLoop=1;jettySize=auto;html=1;entryX=0.5;entryY=0;entryDx=0;entryDy=0;" parent="fndpj23y0kaD9JeOz60D-1" source="m7FT_nDvnCAy3OWpa2_p-0" target="ABhOODnG8ErKxp13wNxD-0" edge="1">
          <mxGeometry relative="1" as="geometry" />
        </mxCell>
        <mxCell id="m7FT_nDvnCAy3OWpa2_p-0" value="&lt;font&gt;Start&lt;/font&gt;" style="rounded=1;whiteSpace=wrap;html=1;fontSize=12;glass=0;strokeWidth=1;shadow=0;fillColor=#f8cecc;strokeColor=#b85450;labelBackgroundColor=none;fontColor=#000000;comic=0;noLabel=0;" parent="fndpj23y0kaD9JeOz60D-1" vertex="1">
          <mxGeometry x="360" y="40" width="120" height="40" as="geometry" />
        </mxCell>
        <mxCell id="fIfGZziwpVkkLRRyet3L-1" style="edgeStyle=orthogonalEdgeStyle;rounded=0;orthogonalLoop=1;jettySize=auto;html=1;entryX=0.5;entryY=0;entryDx=0;entryDy=0;" parent="fndpj23y0kaD9JeOz60D-1" source="ABhOODnG8ErKxp13wNxD-0" target="fIfGZziwpVkkLRRyet3L-0" edge="1">
          <mxGeometry relative="1" as="geometry" />
        </mxCell>
        <mxCell id="ABhOODnG8ErKxp13wNxD-0" value="&lt;font&gt;Wait for engine&amp;nbsp;&lt;br&gt;position signal&lt;/font&gt;" style="shape=parallelogram;perimeter=parallelogramPerimeter;whiteSpace=wrap;html=1;fixedSize=1;strokeColor=#82b366;labelBackgroundColor=none;fillColor=#d5e8d4;fontColor=#000000;" parent="fndpj23y0kaD9JeOz60D-1" vertex="1">
          <mxGeometry x="360" y="120" width="120" height="40" as="geometry" />
        </mxCell>
        <mxCell id="yu0iXTdJEhCyhgykdA10-1" value="No" style="edgeStyle=orthogonalEdgeStyle;rounded=0;orthogonalLoop=1;jettySize=auto;html=1;entryX=0;entryY=0.5;entryDx=0;entryDy=0;" parent="fndpj23y0kaD9JeOz60D-1" source="fIfGZziwpVkkLRRyet3L-0" target="yu0iXTdJEhCyhgykdA10-0" edge="1">
          <mxGeometry x="-0.3043" y="10" relative="1" as="geometry">
            <mxPoint as="offset" />
          </mxGeometry>
        </mxCell>
        <mxCell id="yu0iXTdJEhCyhgykdA10-4" value="Yes" style="edgeStyle=orthogonalEdgeStyle;rounded=0;orthogonalLoop=1;jettySize=auto;html=1;entryX=1;entryY=0.5;entryDx=0;entryDy=0;" parent="fndpj23y0kaD9JeOz60D-1" source="fIfGZziwpVkkLRRyet3L-0" target="yu0iXTdJEhCyhgykdA10-3" edge="1">
          <mxGeometry x="0.1304" y="-10" relative="1" as="geometry">
            <mxPoint as="offset" />
          </mxGeometry>
        </mxCell>
        <mxCell id="fIfGZziwpVkkLRRyet3L-0" value="Is this the&lt;br&gt;beginning of one&amp;nbsp;&lt;br&gt;of the pistons&amp;nbsp;&lt;br&gt;cycle" style="rhombus;whiteSpace=wrap;html=1;shadow=0;fontFamily=Helvetica;fontSize=12;align=center;strokeWidth=1;spacing=6;spacingTop=-4;strokeColor=#d79b00;labelBackgroundColor=none;fillColor=#ffe6cc;fontColor=#000000;" parent="fndpj23y0kaD9JeOz60D-1" vertex="1">
          <mxGeometry x="360" y="190" width="120" height="100" as="geometry" />
        </mxCell>
        <mxCell id="yu0iXTdJEhCyhgykdA10-2" style="edgeStyle=orthogonalEdgeStyle;rounded=0;orthogonalLoop=1;jettySize=auto;html=1;entryX=1;entryY=0.5;entryDx=0;entryDy=0;" parent="fndpj23y0kaD9JeOz60D-1" source="yu0iXTdJEhCyhgykdA10-0" target="ABhOODnG8ErKxp13wNxD-0" edge="1">
          <mxGeometry relative="1" as="geometry">
            <Array as="points">
              <mxPoint x="686" y="240" />
              <mxPoint x="686" y="140" />
            </Array>
          </mxGeometry>
        </mxCell>
        <mxCell id="yu0iXTdJEhCyhgykdA10-0" value="Measure sensors values" style="rounded=0;whiteSpace=wrap;html=1;strokeColor=#6c8ebf;labelBackgroundColor=none;fillColor=#dae8fc;fontColor=#000000;" parent="fndpj23y0kaD9JeOz60D-1" vertex="1">
          <mxGeometry x="526" y="220" width="120" height="40" as="geometry" />
        </mxCell>
        <mxCell id="yu0iXTdJEhCyhgykdA10-6" style="edgeStyle=orthogonalEdgeStyle;rounded=0;orthogonalLoop=1;jettySize=auto;html=1;entryX=0;entryY=0.5;entryDx=0;entryDy=0;" parent="fndpj23y0kaD9JeOz60D-1" source="yu0iXTdJEhCyhgykdA10-3" target="ABhOODnG8ErKxp13wNxD-0" edge="1">
          <mxGeometry relative="1" as="geometry">
            <Array as="points">
              <mxPoint x="160" y="240" />
              <mxPoint x="160" y="140" />
            </Array>
          </mxGeometry>
        </mxCell>
        <mxCell id="yu0iXTdJEhCyhgykdA10-3" value="Calulate fuel and spark parameters. Schedule timers" style="rounded=0;whiteSpace=wrap;html=1;strokeColor=#6c8ebf;labelBackgroundColor=none;fillColor=#dae8fc;fontColor=#000000;" parent="fndpj23y0kaD9JeOz60D-1" vertex="1">
          <mxGeometry x="206" y="220" width="120" height="40" as="geometry" />
        </mxCell>
      </root>
    </mxGraphModel>
  </diagram>
  <diagram id="BF1yWf7izBIDP2WsJW2w" name="Code structure">
    <mxGraphModel dx="813" dy="435" grid="1" gridSize="10" guides="1" tooltips="1" connect="1" arrows="1" fold="1" page="1" pageScale="1" pageWidth="827" pageHeight="1169" math="0" shadow="0">
      <root>
        <mxCell id="GcZQKDMMaKj7oqxbj_VP-0" />
        <mxCell id="GcZQKDMMaKj7oqxbj_VP-1" parent="GcZQKDMMaKj7oqxbj_VP-0" />
        <mxCell id="57m0vmFg8gGqsk2cf6nA-27" style="edgeStyle=orthogonalEdgeStyle;rounded=0;orthogonalLoop=1;jettySize=auto;html=1;entryX=0.5;entryY=0;entryDx=0;entryDy=0;strokeColor=#000000;labelBackgroundColor=none;fontColor=#000000;" edge="1" parent="GcZQKDMMaKj7oqxbj_VP-1" source="57m0vmFg8gGqsk2cf6nA-28">
          <mxGeometry relative="1" as="geometry">
            <mxPoint x="400.02" y="120" as="targetPoint" />
          </mxGeometry>
        </mxCell>
        <mxCell id="57m0vmFg8gGqsk2cf6nA-28" value="&lt;font&gt;Start&lt;/font&gt;" style="rounded=1;whiteSpace=wrap;html=1;fontSize=12;glass=0;strokeWidth=1;shadow=0;fillColor=#f8cecc;strokeColor=#b85450;labelBackgroundColor=none;fontColor=#000000;comic=0;noLabel=0;" vertex="1" parent="GcZQKDMMaKj7oqxbj_VP-1">
          <mxGeometry x="340.02" y="40" width="120" height="40" as="geometry" />
        </mxCell>
        <mxCell id="4VvyP_fif7jnlGJy43cu-17" style="edgeStyle=orthogonalEdgeStyle;rounded=0;orthogonalLoop=1;jettySize=auto;html=1;entryX=0.5;entryY=0;entryDx=0;entryDy=0;fontSize=11;" edge="1" parent="GcZQKDMMaKj7oqxbj_VP-1" source="57m0vmFg8gGqsk2cf6nA-34" target="4VvyP_fif7jnlGJy43cu-4">
          <mxGeometry relative="1" as="geometry" />
        </mxCell>
        <mxCell id="57m0vmFg8gGqsk2cf6nA-34" value="&lt;font style=&quot;font-size: 12px&quot;&gt;Czekaj na&lt;br&gt;przerwanie od zbocza&lt;/font&gt;" style="shape=parallelogram;perimeter=parallelogramPerimeter;whiteSpace=wrap;html=1;fixedSize=1;strokeColor=#82b366;labelBackgroundColor=none;fillColor=#d5e8d4;fontColor=#000000;" vertex="1" parent="GcZQKDMMaKj7oqxbj_VP-1">
          <mxGeometry x="320" y="120" width="160" height="40" as="geometry" />
        </mxCell>
        <mxCell id="4VvyP_fif7jnlGJy43cu-18" style="edgeStyle=orthogonalEdgeStyle;rounded=0;orthogonalLoop=1;jettySize=auto;html=1;entryX=0.5;entryY=0;entryDx=0;entryDy=0;fontSize=12;" edge="1" parent="GcZQKDMMaKj7oqxbj_VP-1" source="4VvyP_fif7jnlGJy43cu-4" target="4VvyP_fif7jnlGJy43cu-14">
          <mxGeometry relative="1" as="geometry" />
        </mxCell>
        <mxCell id="4VvyP_fif7jnlGJy43cu-4" value="Rozpocznij&lt;br&gt;zaplanowane akcje" style="shape=parallelogram;perimeter=parallelogramPerimeter;whiteSpace=wrap;html=1;fixedSize=1;strokeColor=#82b366;labelBackgroundColor=none;fillColor=#d5e8d4;fontColor=#000000;" vertex="1" parent="GcZQKDMMaKj7oqxbj_VP-1">
          <mxGeometry x="320" y="200" width="160" height="40" as="geometry" />
        </mxCell>
        <mxCell id="4VvyP_fif7jnlGJy43cu-19" style="edgeStyle=orthogonalEdgeStyle;rounded=0;orthogonalLoop=1;jettySize=auto;html=1;entryX=1;entryY=0.5;entryDx=0;entryDy=0;fontSize=12;" edge="1" parent="GcZQKDMMaKj7oqxbj_VP-1" source="4VvyP_fif7jnlGJy43cu-14" target="57m0vmFg8gGqsk2cf6nA-34">
          <mxGeometry relative="1" as="geometry">
            <Array as="points">
              <mxPoint x="400" y="360" />
              <mxPoint x="520" y="360" />
              <mxPoint x="520" y="140" />
            </Array>
          </mxGeometry>
        </mxCell>
        <mxCell id="4VvyP_fif7jnlGJy43cu-14" value="Obsłuż logikę prędkości&lt;br&gt;i synchronizacji" style="shape=parallelogram;perimeter=parallelogramPerimeter;whiteSpace=wrap;html=1;fixedSize=1;strokeColor=#82b366;labelBackgroundColor=none;fillColor=#d5e8d4;fontColor=#000000;" vertex="1" parent="GcZQKDMMaKj7oqxbj_VP-1">
          <mxGeometry x="320" y="280" width="160" height="40" as="geometry" />
        </mxCell>
      </root>
    </mxGraphModel>
  </diagram>
  <diagram id="_BjzHt_yjWj9hOcMk9_a" name="ECUlogic">
    <mxGraphModel dx="1293" dy="693" grid="1" gridSize="10" guides="1" tooltips="1" connect="1" arrows="1" fold="1" page="1" pageScale="1" pageWidth="827" pageHeight="1169" math="0" shadow="0">
      <root>
        <mxCell id="s-eAeCmiz5WNtb1Vv-lJ-0" />
        <mxCell id="s-eAeCmiz5WNtb1Vv-lJ-1" parent="s-eAeCmiz5WNtb1Vv-lJ-0" />
        <mxCell id="PiK-id8q4mrZbCaqQK3v-1" style="edgeStyle=orthogonalEdgeStyle;rounded=0;orthogonalLoop=1;jettySize=auto;html=1;entryX=0.5;entryY=0;entryDx=0;entryDy=0;fontSize=12;" edge="1" parent="s-eAeCmiz5WNtb1Vv-lJ-1" source="C-dSAj32-HtLdsnAtcJH-0" target="PiK-id8q4mrZbCaqQK3v-0">
          <mxGeometry relative="1" as="geometry" />
        </mxCell>
        <mxCell id="C-dSAj32-HtLdsnAtcJH-0" value="&lt;font&gt;Start&lt;/font&gt;" style="rounded=1;whiteSpace=wrap;html=1;fontSize=12;glass=0;strokeWidth=1;shadow=0;fillColor=#f8cecc;strokeColor=#b85450;labelBackgroundColor=none;fontColor=#000000;comic=0;noLabel=0;" vertex="1" parent="s-eAeCmiz5WNtb1Vv-lJ-1">
          <mxGeometry x="360" y="80" width="120" height="40" as="geometry" />
        </mxCell>
        <mxCell id="KAYX2cvWI5jtqn2MDxK0-2" style="edgeStyle=orthogonalEdgeStyle;rounded=0;orthogonalLoop=1;jettySize=auto;html=1;entryX=0.5;entryY=0;entryDx=0;entryDy=0;fontSize=12;" edge="1" parent="s-eAeCmiz5WNtb1Vv-lJ-1" source="PiK-id8q4mrZbCaqQK3v-0" target="KAYX2cvWI5jtqn2MDxK0-1">
          <mxGeometry relative="1" as="geometry" />
        </mxCell>
        <mxCell id="27eCQqHSO_qcMY0MU1UQ-4" value="Tak" style="edgeLabel;html=1;align=center;verticalAlign=middle;resizable=0;points=[];fontSize=12;" vertex="1" connectable="0" parent="KAYX2cvWI5jtqn2MDxK0-2">
          <mxGeometry x="-0.1667" relative="1" as="geometry">
            <mxPoint x="10" y="-7" as="offset" />
          </mxGeometry>
        </mxCell>
        <mxCell id="-ZVxd0DgjJGriL2urYfA-6" style="edgeStyle=orthogonalEdgeStyle;rounded=0;orthogonalLoop=1;jettySize=auto;html=1;fontSize=12;entryX=0;entryY=0.5;entryDx=0;entryDy=0;" edge="1" parent="s-eAeCmiz5WNtb1Vv-lJ-1" source="PiK-id8q4mrZbCaqQK3v-0" target="-ZVxd0DgjJGriL2urYfA-18">
          <mxGeometry relative="1" as="geometry">
            <mxPoint x="420" y="810" as="targetPoint" />
            <Array as="points">
              <mxPoint x="320" y="220" />
              <mxPoint x="320" y="830" />
            </Array>
          </mxGeometry>
        </mxCell>
        <mxCell id="-ZVxd0DgjJGriL2urYfA-7" value="Nie" style="edgeLabel;html=1;align=center;verticalAlign=middle;resizable=0;points=[];fontSize=12;" vertex="1" connectable="0" parent="-ZVxd0DgjJGriL2urYfA-6">
          <mxGeometry x="-0.9699" y="-1" relative="1" as="geometry">
            <mxPoint y="-9" as="offset" />
          </mxGeometry>
        </mxCell>
        <mxCell id="PiK-id8q4mrZbCaqQK3v-0" value="Czy silnik &lt;br&gt;posiada prędkość większą niż &lt;br&gt;minimalna" style="rhombus;whiteSpace=wrap;html=1;shadow=0;fontFamily=Helvetica;fontSize=12;align=center;strokeWidth=1;spacing=6;spacingTop=-4;strokeColor=#d79b00;labelBackgroundColor=none;fillColor=#ffe6cc;fontColor=#000000;" vertex="1" parent="s-eAeCmiz5WNtb1Vv-lJ-1">
          <mxGeometry x="350" y="160" width="140" height="120" as="geometry" />
        </mxCell>
        <mxCell id="KAYX2cvWI5jtqn2MDxK0-4" style="edgeStyle=orthogonalEdgeStyle;rounded=0;orthogonalLoop=1;jettySize=auto;html=1;fontSize=12;entryX=0.5;entryY=0;entryDx=0;entryDy=0;" edge="1" parent="s-eAeCmiz5WNtb1Vv-lJ-1" source="KAYX2cvWI5jtqn2MDxK0-1" target="-ZVxd0DgjJGriL2urYfA-11">
          <mxGeometry relative="1" as="geometry">
            <mxPoint x="420" y="450" as="targetPoint" />
          </mxGeometry>
        </mxCell>
        <mxCell id="27eCQqHSO_qcMY0MU1UQ-5" value="Nie" style="edgeLabel;html=1;align=center;verticalAlign=middle;resizable=0;points=[];fontSize=12;" vertex="1" connectable="0" parent="KAYX2cvWI5jtqn2MDxK0-4">
          <mxGeometry x="-0.2452" y="1" relative="1" as="geometry">
            <mxPoint x="-19" y="-17" as="offset" />
          </mxGeometry>
        </mxCell>
        <mxCell id="-ZVxd0DgjJGriL2urYfA-1" value="Tak" style="edgeStyle=orthogonalEdgeStyle;rounded=0;orthogonalLoop=1;jettySize=auto;html=1;fontSize=12;" edge="1" parent="s-eAeCmiz5WNtb1Vv-lJ-1" source="KAYX2cvWI5jtqn2MDxK0-1" target="-ZVxd0DgjJGriL2urYfA-0">
          <mxGeometry y="10" relative="1" as="geometry">
            <mxPoint as="offset" />
          </mxGeometry>
        </mxCell>
        <mxCell id="KAYX2cvWI5jtqn2MDxK0-1" value="Czy należy&lt;br&gt;przygotować moduł zapłonu" style="rhombus;whiteSpace=wrap;html=1;shadow=0;fontFamily=Helvetica;fontSize=12;align=center;strokeWidth=1;spacing=6;spacingTop=-4;strokeColor=#d79b00;labelBackgroundColor=none;fillColor=#ffe6cc;fontColor=#000000;" vertex="1" parent="s-eAeCmiz5WNtb1Vv-lJ-1">
          <mxGeometry x="350" y="320" width="140" height="120" as="geometry" />
        </mxCell>
        <mxCell id="27eCQqHSO_qcMY0MU1UQ-2" value="Nie" style="edgeStyle=orthogonalEdgeStyle;rounded=0;orthogonalLoop=1;jettySize=auto;html=1;fontSize=12;entryX=0.5;entryY=0;entryDx=0;entryDy=0;" edge="1" parent="s-eAeCmiz5WNtb1Vv-lJ-1" source="KAYX2cvWI5jtqn2MDxK0-3" target="-ZVxd0DgjJGriL2urYfA-16">
          <mxGeometry x="-1" y="-20" relative="1" as="geometry">
            <mxPoint x="420" y="640" as="targetPoint" />
            <mxPoint as="offset" />
          </mxGeometry>
        </mxCell>
        <mxCell id="-ZVxd0DgjJGriL2urYfA-4" value="Tak" style="edgeStyle=orthogonalEdgeStyle;rounded=0;orthogonalLoop=1;jettySize=auto;html=1;entryX=0;entryY=0.5;entryDx=0;entryDy=0;fontSize=12;" edge="1" parent="s-eAeCmiz5WNtb1Vv-lJ-1" source="KAYX2cvWI5jtqn2MDxK0-3" target="-ZVxd0DgjJGriL2urYfA-3">
          <mxGeometry y="10" relative="1" as="geometry">
            <mxPoint as="offset" />
          </mxGeometry>
        </mxCell>
        <mxCell id="KAYX2cvWI5jtqn2MDxK0-3" value="Czy należy&lt;br&gt;przygotować moduł wtrysku" style="rhombus;whiteSpace=wrap;html=1;shadow=0;fontFamily=Helvetica;fontSize=12;align=center;strokeWidth=1;spacing=6;spacingTop=-4;strokeColor=#d79b00;labelBackgroundColor=none;fillColor=#ffe6cc;fontColor=#000000;" vertex="1" parent="s-eAeCmiz5WNtb1Vv-lJ-1">
          <mxGeometry x="350" y="500" width="140" height="120" as="geometry" />
        </mxCell>
        <mxCell id="27eCQqHSO_qcMY0MU1UQ-0" value="&lt;font&gt;Stop&lt;/font&gt;" style="rounded=1;whiteSpace=wrap;html=1;fontSize=12;glass=0;strokeWidth=1;shadow=0;fillColor=#f8cecc;strokeColor=#b85450;labelBackgroundColor=none;fontColor=#000000;comic=0;noLabel=0;" vertex="1" parent="s-eAeCmiz5WNtb1Vv-lJ-1">
          <mxGeometry x="360" y="860" width="120" height="40" as="geometry" />
        </mxCell>
        <mxCell id="27eCQqHSO_qcMY0MU1UQ-3" value="Nie" style="edgeStyle=orthogonalEdgeStyle;rounded=0;orthogonalLoop=1;jettySize=auto;html=1;fontSize=12;" edge="1" parent="s-eAeCmiz5WNtb1Vv-lJ-1" source="27eCQqHSO_qcMY0MU1UQ-1">
          <mxGeometry x="0.3339" y="-20" relative="1" as="geometry">
            <mxPoint x="420" y="820" as="targetPoint" />
            <mxPoint as="offset" />
          </mxGeometry>
        </mxCell>
        <mxCell id="-ZVxd0DgjJGriL2urYfA-9" value="Tak" style="edgeStyle=orthogonalEdgeStyle;rounded=0;orthogonalLoop=1;jettySize=auto;html=1;entryX=0;entryY=0.5;entryDx=0;entryDy=0;fontSize=12;" edge="1" parent="s-eAeCmiz5WNtb1Vv-lJ-1" source="27eCQqHSO_qcMY0MU1UQ-1" target="-ZVxd0DgjJGriL2urYfA-8">
          <mxGeometry y="10" relative="1" as="geometry">
            <mxPoint as="offset" />
          </mxGeometry>
        </mxCell>
        <mxCell id="27eCQqHSO_qcMY0MU1UQ-1" value="Czy należy&lt;br&gt;wykonać pomiar&lt;br&gt;czujników" style="rhombus;whiteSpace=wrap;html=1;shadow=0;fontFamily=Helvetica;fontSize=12;align=center;strokeWidth=1;spacing=6;spacingTop=-4;strokeColor=#d79b00;labelBackgroundColor=none;fillColor=#ffe6cc;fontColor=#000000;" vertex="1" parent="s-eAeCmiz5WNtb1Vv-lJ-1">
          <mxGeometry x="350" y="680" width="140" height="120" as="geometry" />
        </mxCell>
        <mxCell id="-ZVxd0DgjJGriL2urYfA-2" style="edgeStyle=orthogonalEdgeStyle;rounded=0;orthogonalLoop=1;jettySize=auto;html=1;fontSize=12;entryX=1;entryY=0.5;entryDx=0;entryDy=0;" edge="1" parent="s-eAeCmiz5WNtb1Vv-lJ-1" source="-ZVxd0DgjJGriL2urYfA-0" target="-ZVxd0DgjJGriL2urYfA-11">
          <mxGeometry relative="1" as="geometry">
            <mxPoint x="470" y="460" as="targetPoint" />
            <Array as="points">
              <mxPoint x="650" y="380" />
              <mxPoint x="650" y="470" />
            </Array>
          </mxGeometry>
        </mxCell>
        <mxCell id="-ZVxd0DgjJGriL2urYfA-0" value="Przygotuj moduł&lt;br&gt;zapłonu" style="shape=parallelogram;perimeter=parallelogramPerimeter;whiteSpace=wrap;html=1;fixedSize=1;strokeColor=#82b366;labelBackgroundColor=none;fillColor=#d5e8d4;fontColor=#000000;" vertex="1" parent="s-eAeCmiz5WNtb1Vv-lJ-1">
          <mxGeometry x="520" y="360" width="120" height="40" as="geometry" />
        </mxCell>
        <mxCell id="-ZVxd0DgjJGriL2urYfA-5" style="edgeStyle=orthogonalEdgeStyle;rounded=0;orthogonalLoop=1;jettySize=auto;html=1;fontSize=12;entryX=1;entryY=0.5;entryDx=0;entryDy=0;" edge="1" parent="s-eAeCmiz5WNtb1Vv-lJ-1" source="-ZVxd0DgjJGriL2urYfA-3" target="-ZVxd0DgjJGriL2urYfA-16">
          <mxGeometry relative="1" as="geometry">
            <mxPoint x="480" y="640" as="targetPoint" />
            <Array as="points">
              <mxPoint x="650" y="560" />
              <mxPoint x="650" y="650" />
            </Array>
          </mxGeometry>
        </mxCell>
        <mxCell id="-ZVxd0DgjJGriL2urYfA-3" value="Przygotuj moduł&lt;br&gt;wtrysku" style="shape=parallelogram;perimeter=parallelogramPerimeter;whiteSpace=wrap;html=1;fixedSize=1;strokeColor=#82b366;labelBackgroundColor=none;fillColor=#d5e8d4;fontColor=#000000;" vertex="1" parent="s-eAeCmiz5WNtb1Vv-lJ-1">
          <mxGeometry x="520" y="540" width="120" height="40" as="geometry" />
        </mxCell>
        <mxCell id="-ZVxd0DgjJGriL2urYfA-10" style="edgeStyle=orthogonalEdgeStyle;rounded=0;orthogonalLoop=1;jettySize=auto;html=1;fontSize=12;entryX=1;entryY=0.5;entryDx=0;entryDy=0;" edge="1" parent="s-eAeCmiz5WNtb1Vv-lJ-1" source="-ZVxd0DgjJGriL2urYfA-8" target="-ZVxd0DgjJGriL2urYfA-18">
          <mxGeometry relative="1" as="geometry">
            <mxPoint x="430" y="840" as="targetPoint" />
            <Array as="points">
              <mxPoint x="650" y="740" />
              <mxPoint x="650" y="830" />
            </Array>
          </mxGeometry>
        </mxCell>
        <mxCell id="-ZVxd0DgjJGriL2urYfA-8" value="Wykonaj pomiary" style="shape=parallelogram;perimeter=parallelogramPerimeter;whiteSpace=wrap;html=1;fixedSize=1;strokeColor=#82b366;labelBackgroundColor=none;fillColor=#d5e8d4;fontColor=#000000;" vertex="1" parent="s-eAeCmiz5WNtb1Vv-lJ-1">
          <mxGeometry x="520" y="720" width="120" height="40" as="geometry" />
        </mxCell>
        <mxCell id="-ZVxd0DgjJGriL2urYfA-15" style="edgeStyle=orthogonalEdgeStyle;rounded=0;orthogonalLoop=1;jettySize=auto;html=1;entryX=0.5;entryY=0;entryDx=0;entryDy=0;fontSize=12;" edge="1" parent="s-eAeCmiz5WNtb1Vv-lJ-1" source="-ZVxd0DgjJGriL2urYfA-11" target="KAYX2cvWI5jtqn2MDxK0-3">
          <mxGeometry relative="1" as="geometry" />
        </mxCell>
        <mxCell id="-ZVxd0DgjJGriL2urYfA-11" value="" style="ellipse;whiteSpace=wrap;html=1;aspect=fixed;fontSize=12;fillColor=#fff2cc;strokeColor=#d6b656;" vertex="1" parent="s-eAeCmiz5WNtb1Vv-lJ-1">
          <mxGeometry x="410" y="460" width="20" height="20" as="geometry" />
        </mxCell>
        <mxCell id="-ZVxd0DgjJGriL2urYfA-17" style="edgeStyle=orthogonalEdgeStyle;rounded=0;orthogonalLoop=1;jettySize=auto;html=1;entryX=0.5;entryY=0;entryDx=0;entryDy=0;fontSize=12;" edge="1" parent="s-eAeCmiz5WNtb1Vv-lJ-1" source="-ZVxd0DgjJGriL2urYfA-16" target="27eCQqHSO_qcMY0MU1UQ-1">
          <mxGeometry relative="1" as="geometry" />
        </mxCell>
        <mxCell id="-ZVxd0DgjJGriL2urYfA-16" value="" style="ellipse;whiteSpace=wrap;html=1;aspect=fixed;fontSize=12;fillColor=#fff2cc;strokeColor=#d6b656;" vertex="1" parent="s-eAeCmiz5WNtb1Vv-lJ-1">
          <mxGeometry x="410" y="640" width="20" height="20" as="geometry" />
        </mxCell>
        <mxCell id="-ZVxd0DgjJGriL2urYfA-19" style="edgeStyle=orthogonalEdgeStyle;rounded=0;orthogonalLoop=1;jettySize=auto;html=1;entryX=0.5;entryY=0;entryDx=0;entryDy=0;fontSize=12;" edge="1" parent="s-eAeCmiz5WNtb1Vv-lJ-1" source="-ZVxd0DgjJGriL2urYfA-18" target="27eCQqHSO_qcMY0MU1UQ-0">
          <mxGeometry relative="1" as="geometry" />
        </mxCell>
        <mxCell id="-ZVxd0DgjJGriL2urYfA-18" value="" style="ellipse;whiteSpace=wrap;html=1;aspect=fixed;fontSize=12;fillColor=#fff2cc;strokeColor=#d6b656;" vertex="1" parent="s-eAeCmiz5WNtb1Vv-lJ-1">
          <mxGeometry x="410" y="820" width="20" height="20" as="geometry" />
        </mxCell>
      </root>
    </mxGraphModel>
  </diagram>
</mxfile>
